# MagicaVoxel @ ephtracy

# material
mtllib BoxHappy.mtl
usemtl palette

# normals
vn -1 0 0
vn 1 0 0
vn 0 0 1
vn 0 0 -1
vn 0 -1 0
vn 0 1 0

# texcoords
vt 0.0253906 0.5
vt 0.306641 0.5
vt 0.845703 0.5
vt 0.857422 0.5

# verts
v -10.5 0 10.5
v -10.5 0 -10.5
v -10.5 20 10.5
v -10.5 20 5.5
v -10.5 20 -5.5
v -10.5 20 -10.5
v -10.5 22 5.5
v -10.5 22 -5.5
v -8.5 2 11.5
v -8.5 2 10.5
v -8.5 8 11.5
v -8.5 8 10.5
v -6.5 22 0.5
v -6.5 22 -0.5
v -6.5 23 0.5
v -6.5 23 -0.5
v -6.5 29 0.5
v -6.5 29 -0.5
v -5.5 10 11.5
v -5.5 10 10.5
v -5.5 17 11.5
v -5.5 17 10.5
v 2.5 10 11.5
v 2.5 10 10.5
v 2.5 17 11.5
v 2.5 17 10.5
v 4.5 24 0.5
v 4.5 24 -0.5
v 4.5 27 0.5
v 4.5 27 -0.5
v 6.5 4 11.5
v 6.5 4 10.5
v 6.5 8 11.5
v 6.5 8 10.5
v -6.5 4 11.5
v -6.5 4 10.5
v -6.5 8 11.5
v -6.5 8 10.5
v -4.5 24 0.5
v -4.5 24 -0.5
v -4.5 27 0.5
v -4.5 27 -0.5
v -2.5 10 11.5
v -2.5 10 10.5
v -2.5 17 11.5
v -2.5 17 10.5
v 5.5 10 11.5
v 5.5 10 10.5
v 5.5 17 11.5
v 5.5 17 10.5
v 6.5 22 0.5
v 6.5 22 -0.5
v 6.5 23 0.5
v 6.5 23 -0.5
v 6.5 29 0.5
v 6.5 29 -0.5
v 8.5 2 11.5
v 8.5 2 10.5
v 8.5 8 11.5
v 8.5 8 10.5
v 10.5 0 10.5
v 10.5 0 -10.5
v 10.5 20 10.5
v 10.5 20 5.5
v 10.5 20 -5.5
v 10.5 20 -10.5
v 10.5 22 5.5
v 10.5 22 -5.5
v -8.5 2 11.5
v -8.5 8 11.5
v -6.5 4 11.5
v -6.5 8 11.5
v -5.5 10 11.5
v -5.5 17 11.5
v -2.5 10 11.5
v -2.5 17 11.5
v 2.5 10 11.5
v 2.5 17 11.5
v 5.5 10 11.5
v 5.5 17 11.5
v 6.5 4 11.5
v 6.5 8 11.5
v 8.5 2 11.5
v 8.5 8 11.5
v -10.5 0 10.5
v -10.5 20 10.5
v -8.5 2 10.5
v -8.5 8 10.5
v -6.5 4 10.5
v -6.5 8 10.5
v -5.5 10 10.5
v -5.5 17 10.5
v -2.5 10 10.5
v -2.5 17 10.5
v 2.5 10 10.5
v 2.5 17 10.5
v 5.5 10 10.5
v 5.5 17 10.5
v 6.5 4 10.5
v 6.5 8 10.5
v 8.5 2 10.5
v 8.5 8 10.5
v 10.5 0 10.5
v 10.5 20 10.5
v -10.5 20 5.5
v -10.5 22 5.5
v 10.5 20 5.5
v 10.5 22 5.5
v -6.5 22 0.5
v -6.5 23 0.5
v -6.5 29 0.5
v -4.5 24 0.5
v -4.5 27 0.5
v 4.5 24 0.5
v 4.5 27 0.5
v 6.5 22 0.5
v 6.5 23 0.5
v 6.5 29 0.5
v -6.5 22 -0.5
v -6.5 23 -0.5
v -6.5 29 -0.5
v -4.5 24 -0.5
v -4.5 27 -0.5
v 4.5 24 -0.5
v 4.5 27 -0.5
v 6.5 22 -0.5
v 6.5 23 -0.5
v 6.5 29 -0.5
v -10.5 20 -5.5
v -10.5 22 -5.5
v 10.5 20 -5.5
v 10.5 22 -5.5
v -10.5 0 -10.5
v -10.5 20 -10.5
v 10.5 0 -10.5
v 10.5 20 -10.5
v -10.5 0 10.5
v 10.5 0 10.5
v -10.5 0 -10.5
v 10.5 0 -10.5
v -8.5 2 11.5
v 8.5 2 11.5
v -8.5 2 10.5
v 8.5 2 10.5
v -5.5 10 11.5
v -2.5 10 11.5
v 2.5 10 11.5
v 5.5 10 11.5
v -5.5 10 10.5
v -2.5 10 10.5
v 2.5 10 10.5
v 5.5 10 10.5
v -4.5 27 0.5
v 4.5 27 0.5
v -4.5 27 -0.5
v 4.5 27 -0.5
v -6.5 4 11.5
v 6.5 4 11.5
v -6.5 4 10.5
v 6.5 4 10.5
v -8.5 8 11.5
v -6.5 8 11.5
v 6.5 8 11.5
v 8.5 8 11.5
v -8.5 8 10.5
v -6.5 8 10.5
v 6.5 8 10.5
v 8.5 8 10.5
v -5.5 17 11.5
v -2.5 17 11.5
v 2.5 17 11.5
v 5.5 17 11.5
v -5.5 17 10.5
v -2.5 17 10.5
v 2.5 17 10.5
v 5.5 17 10.5
v -10.5 20 10.5
v 10.5 20 10.5
v -10.5 20 5.5
v 10.5 20 5.5
v -10.5 20 -5.5
v 10.5 20 -5.5
v -10.5 20 -10.5
v 10.5 20 -10.5
v -10.5 22 5.5
v 10.5 22 5.5
v -9.5 22 0.5
v -6.5 22 0.5
v 6.5 22 0.5
v 9.5 22 0.5
v -9.5 22 -0.5
v -6.5 22 -0.5
v 6.5 22 -0.5
v 9.5 22 -0.5
v -10.5 22 -5.5
v 10.5 22 -5.5
v -4.5 24 0.5
v 4.5 24 0.5
v -4.5 24 -0.5
v 4.5 24 -0.5
v -6.5 29 0.5
v 6.5 29 0.5
v -6.5 29 -0.5
v 6.5 29 -0.5

# faces
f 3/3/1 2/3/1 1/3/1
f 4/3/1 2/3/1 3/3/1
f 5/3/1 2/3/1 4/3/1
f 6/3/1 2/3/1 5/3/1
f 7/3/1 5/3/1 4/3/1
f 8/3/1 5/3/1 7/3/1
f 11/1/1 10/1/1 9/1/1
f 12/1/1 10/1/1 11/1/1
f 15/4/1 14/4/1 13/4/1
f 16/4/1 14/4/1 15/4/1
f 17/1/1 16/1/1 15/1/1
f 18/1/1 16/1/1 17/1/1
f 21/1/1 20/1/1 19/1/1
f 22/1/1 20/1/1 21/1/1
f 25/1/1 24/1/1 23/1/1
f 26/1/1 24/1/1 25/1/1
f 29/1/1 28/1/1 27/1/1
f 30/1/1 28/1/1 29/1/1
f 33/1/1 32/1/1 31/1/1
f 34/1/1 32/1/1 33/1/1
f 35/1/2 36/1/2 37/1/2
f 37/1/2 36/1/2 38/1/2
f 39/1/2 40/1/2 41/1/2
f 41/1/2 40/1/2 42/1/2
f 43/1/2 44/1/2 45/1/2
f 45/1/2 44/1/2 46/1/2
f 47/1/2 48/1/2 49/1/2
f 49/1/2 48/1/2 50/1/2
f 51/4/2 52/4/2 53/4/2
f 53/4/2 52/4/2 54/4/2
f 53/1/2 54/1/2 55/1/2
f 55/1/2 54/1/2 56/1/2
f 57/1/2 58/1/2 59/1/2
f 59/1/2 58/1/2 60/1/2
f 61/3/2 62/3/2 63/3/2
f 63/3/2 62/3/2 64/3/2
f 64/3/2 62/3/2 65/3/2
f 65/3/2 62/3/2 66/3/2
f 64/3/2 65/3/2 67/3/2
f 67/3/2 65/3/2 68/3/2
f 71/1/3 70/1/3 69/1/3
f 72/1/3 70/1/3 71/1/3
f 75/1/3 74/1/3 73/1/3
f 76/1/3 74/1/3 75/1/3
f 79/1/3 78/1/3 77/1/3
f 80/1/3 78/1/3 79/1/3
f 81/1/3 71/1/3 69/1/3
f 83/1/3 81/1/3 69/1/3
f 83/1/3 82/1/3 81/1/3
f 84/1/3 82/1/3 83/1/3
f 87/3/3 86/3/3 85/3/3
f 88/3/3 86/3/3 87/3/3
f 90/3/3 86/3/3 88/3/3
f 91/3/3 86/3/3 90/3/3
f 91/3/3 90/3/3 89/3/3
f 92/3/3 86/3/3 91/3/3
f 93/3/3 91/3/3 89/3/3
f 94/3/3 86/3/3 92/3/3
f 95/3/3 93/3/3 89/3/3
f 95/3/3 94/3/3 93/3/3
f 96/3/3 86/3/3 94/3/3
f 96/3/3 94/3/3 95/3/3
f 97/3/3 95/3/3 89/3/3
f 98/3/3 86/3/3 96/3/3
f 99/3/3 97/3/3 89/3/3
f 99/3/3 98/3/3 97/3/3
f 100/3/3 98/3/3 99/3/3
f 101/3/3 87/3/3 85/3/3
f 102/3/3 98/3/3 100/3/3
f 103/3/3 101/3/3 85/3/3
f 103/3/3 102/3/3 101/3/3
f 104/3/3 98/3/3 102/3/3
f 104/3/3 102/3/3 103/3/3
f 104/3/3 86/3/3 98/3/3
f 107/3/3 106/3/3 105/3/3
f 108/3/3 106/3/3 107/3/3
f 112/1/3 111/1/3 110/1/3
f 113/1/3 111/1/3 112/1/3
f 114/1/3 112/1/3 110/1/3
f 115/1/3 111/1/3 113/1/3
f 116/4/3 110/4/3 109/4/3
f 117/1/3 115/1/3 114/1/3
f 117/4/3 110/4/3 116/4/3
f 117/1/3 114/1/3 110/1/3
f 118/1/3 111/1/3 115/1/3
f 118/1/3 115/1/3 117/1/3
f 120/1/4 121/1/4 122/1/4
f 122/1/4 121/1/4 123/1/4
f 120/1/4 122/1/4 124/1/4
f 123/1/4 121/1/4 125/1/4
f 119/4/4 120/4/4 126/4/4
f 124/1/4 125/1/4 127/1/4
f 126/4/4 120/4/4 127/4/4
f 120/1/4 124/1/4 127/1/4
f 125/1/4 121/1/4 128/1/4
f 127/1/4 125/1/4 128/1/4
f 129/3/4 130/3/4 131/3/4
f 131/3/4 130/3/4 132/3/4
f 133/3/4 134/3/4 135/3/4
f 135/3/4 134/3/4 136/3/4
f 139/3/5 138/3/5 137/3/5
f 140/3/5 138/3/5 139/3/5
f 143/1/5 142/1/5 141/1/5
f 144/1/5 142/1/5 143/1/5
f 149/1/5 146/1/5 145/1/5
f 150/1/5 146/1/5 149/1/5
f 151/1/5 148/1/5 147/1/5
f 152/1/5 148/1/5 151/1/5
f 155/1/5 154/1/5 153/1/5
f 156/1/5 154/1/5 155/1/5
f 157/1/6 158/1/6 159/1/6
f 159/1/6 158/1/6 160/1/6
f 161/1/6 162/1/6 165/1/6
f 165/1/6 162/1/6 166/1/6
f 163/1/6 164/1/6 167/1/6
f 167/1/6 164/1/6 168/1/6
f 169/1/6 170/1/6 173/1/6
f 173/1/6 170/1/6 174/1/6
f 171/1/6 172/1/6 175/1/6
f 175/1/6 172/1/6 176/1/6
f 177/3/6 178/3/6 179/3/6
f 179/3/6 178/3/6 180/3/6
f 181/3/6 182/3/6 183/3/6
f 183/3/6 182/3/6 184/3/6
f 185/3/6 186/3/6 187/3/6
f 187/3/6 186/3/6 188/3/6
f 188/3/6 186/3/6 189/3/6
f 189/3/6 186/3/6 190/3/6
f 185/3/6 187/3/6 191/3/6
f 187/4/6 188/4/6 191/4/6
f 191/4/6 188/4/6 192/4/6
f 189/4/6 190/4/6 193/4/6
f 190/3/6 186/3/6 194/3/6
f 193/4/6 190/4/6 194/4/6
f 192/3/6 193/3/6 195/3/6
f 191/3/6 192/3/6 195/3/6
f 193/3/6 194/3/6 195/3/6
f 185/3/6 191/3/6 195/3/6
f 194/3/6 186/3/6 196/3/6
f 195/3/6 194/3/6 196/3/6
f 197/1/6 198/1/6 199/1/6
f 199/1/6 198/1/6 200/1/6
f 201/1/6 202/1/6 203/1/6
f 203/1/6 202/1/6 204/1/6
