# MagicaVoxel @ ephtracy

# material
mtllib NesBox.mtl
usemtl palette

# normals
vn -1 0 0
vn 1 0 0
vn 0 0 1
vn 0 0 -1
vn 0 -1 0
vn 0 1 0

# texcoords
vt 0.0683594 0.5
vt 0.251953 0.5
vt 0.275391 0.5
vt 0.310547 0.5
vt 0.849609 0.5
vt 0.857422 0.5
vt 0.861328 0.5
vt 0.865234 0.5
vt 0.869141 0.5
vt 0.958984 0.5
vt 0.982422 0.5
vt 0.986328 0.5
vt 0.990234 0.5
vt 0.994141 0.5

# verts
v -21 4 -3
v -21 4 -7
v -21 4 -9
v -21 4 -13
v -21 6 -3
v -21 6 -7
v -21 6 -9
v -21 6 -13
v -19 0 22
v -19 0 16
v -19 0 9
v -19 0 -22
v -19 3 15
v -19 3 13
v -19 3 12
v -19 3 10
v -19 4 -3
v -19 4 -7
v -19 4 -9
v -19 4 -13
v -19 4 -15
v -19 4 -17
v -19 5 23
v -19 5 22
v -19 5 -22
v -19 5 -23
v -19 6 -3
v -19 6 -7
v -19 6 -9
v -19 6 -13
v -19 6 -15
v -19 6 -17
v -19 8 15
v -19 8 13
v -19 8 12
v -19 8 10
v -19 9 16
v -19 9 9
v -19 10 23
v -19 10 16
v -19 10 9
v -19 10 -23
v -19 13 16
v -19 13 9
v -19 13 -17
v -19 14 16
v -19 14 9
v -19 14 -16
v -19 16 -5
v -19 16 -7
v -19 16 -8
v -19 16 -9
v -19 16 -10
v -19 16 -12
v -19 16 -13
v -19 16 -15
v -19 17 -5
v -19 17 -7
v -19 18 -5
v -19 18 -7
v -19 19 -5
v -19 19 -7
v -19 19 -8
v -19 19 -9
v -19 20 -10
v -19 20 -11
v -19 20 -12
v -19 20 -13
v -19 21 -11
v -19 21 -12
v -19 22 -12
v -19 22 -15
v -19 23 23
v -19 23 16
v -19 23 9
v -19 23 -16
v -19 23 -17
v -19 23 -23
v -19 24 23
v -19 24 16
v -19 24 9
v -19 24 -16
v -19 24 -17
v -19 24 -23
v -8 23 16
v -8 23 9
v -8 24 16
v -8 24 9
v -4 23 16
v -4 23 9
v -4 24 16
v -4 24 9
v 0 0 22
v 0 0 19
v 0 2 22
v 0 2 19
v 0 23 16
v 0 23 9
v 0 24 16
v 0 24 9
v 4 23 16
v 4 23 9
v 4 24 16
v 4 24 9
v 8 2 23
v 8 2 22
v 8 4 23
v 8 4 22
v 8 23 16
v 8 23 9
v 8 24 16
v 8 24 9
v 12 2 23
v 12 2 22
v 12 4 23
v 12 4 22
v 12 23 16
v 12 23 9
v 12 24 16
v 12 24 9
v 17 5 -20
v 17 5 -21
v 17 6 -20
v 17 6 -21
v -18 5 -20
v -18 5 -21
v -18 6 -20
v -18 6 -21
v -9 23 16
v -9 23 9
v -9 24 16
v -9 24 9
v -5 23 16
v -5 23 9
v -5 24 16
v -5 24 9
v -3 0 22
v -3 0 19
v -3 2 22
v -3 2 19
v -1 23 16
v -1 23 9
v -1 24 16
v -1 24 9
v 3 23 16
v 3 23 9
v 3 24 16
v 3 24 9
v 7 23 16
v 7 23 9
v 7 24 16
v 7 24 9
v 10 2 23
v 10 2 22
v 10 4 23
v 10 4 22
v 11 23 16
v 11 23 9
v 11 24 16
v 11 24 9
v 14 2 23
v 14 2 22
v 14 4 23
v 14 4 22
v 21 0 22
v 21 0 16
v 21 0 9
v 21 0 -22
v 21 5 23
v 21 5 22
v 21 5 -22
v 21 5 -23
v 21 9 16
v 21 9 9
v 21 10 23
v 21 10 16
v 21 10 9
v 21 10 -23
v 21 23 23
v 21 23 16
v 21 23 9
v 21 23 -23
v 21 24 23
v 21 24 16
v 21 24 9
v 21 24 -23
v -19 5 23
v -19 10 23
v -19 23 23
v -19 24 23
v 8 2 23
v 8 4 23
v 10 2 23
v 10 4 23
v 12 2 23
v 12 4 23
v 14 2 23
v 14 4 23
v 21 5 23
v 21 10 23
v 21 23 23
v 21 24 23
v -19 0 22
v -19 5 22
v -3 0 22
v -3 2 22
v 0 0 22
v 0 2 22
v 7 1 22
v 7 5 22
v 8 2 22
v 8 4 22
v 10 2 22
v 10 4 22
v 12 2 22
v 12 4 22
v 14 2 22
v 14 4 22
v 15 1 22
v 15 5 22
v 21 0 22
v 21 5 22
v -3 0 19
v -3 2 19
v 0 0 19
v 0 2 19
v -9 23 9
v -9 24 9
v -8 23 9
v -8 24 9
v -5 23 9
v -5 24 9
v -4 23 9
v -4 24 9
v -1 23 9
v -1 24 9
v 0 23 9
v 0 24 9
v 3 23 9
v 3 24 9
v 4 23 9
v 4 24 9
v 7 23 9
v 7 24 9
v 8 23 9
v 8 24 9
v 11 23 9
v 11 24 9
v 12 23 9
v 12 24 9
v -21 4 -3
v -21 6 -3
v -19 4 -3
v -19 6 -3
v -21 4 -9
v -21 6 -9
v -19 4 -9
v -19 6 -9
v -18 5 -21
v -18 6 -21
v 17 5 -21
v 17 6 -21
v -9 23 16
v -9 24 16
v -8 23 16
v -8 24 16
v -5 23 16
v -5 24 16
v -4 23 16
v -4 24 16
v -1 23 16
v -1 24 16
v 0 23 16
v 0 24 16
v 3 23 16
v 3 24 16
v 4 23 16
v 4 24 16
v 7 23 16
v 7 24 16
v 8 23 16
v 8 24 16
v 11 23 16
v 11 24 16
v 12 23 16
v 12 24 16
v -21 4 -7
v -21 6 -7
v -19 4 -7
v -19 6 -7
v -21 4 -13
v -21 6 -13
v -19 4 -13
v -19 6 -13
v -18 5 -20
v -18 6 -20
v 17 5 -20
v 17 6 -20
v -19 0 -22
v -19 5 -22
v 21 0 -22
v 21 5 -22
v -19 5 -23
v -19 10 -23
v -19 23 -23
v -19 24 -23
v 21 5 -23
v 21 10 -23
v 21 23 -23
v 21 24 -23
v -19 0 22
v -3 0 22
v 0 0 22
v 21 0 22
v -3 0 19
v 0 0 19
v -19 0 16
v -18 0 16
v 20 0 16
v 21 0 16
v -19 0 9
v -18 0 9
v 20 0 9
v 21 0 9
v -19 0 -22
v 21 0 -22
v 8 2 23
v 10 2 23
v 12 2 23
v 14 2 23
v -3 2 22
v 0 2 22
v 8 2 22
v 10 2 22
v 12 2 22
v 14 2 22
v -3 2 19
v 0 2 19
v -21 4 -3
v -19 4 -3
v -21 4 -7
v -19 4 -7
v -21 4 -9
v -19 4 -9
v -21 4 -13
v -19 4 -13
v -19 5 23
v 21 5 23
v -19 5 22
v 7 5 22
v 15 5 22
v 21 5 22
v -19 5 -22
v 21 5 -22
v -19 5 -23
v 21 5 -23
v -18 6 -20
v 17 6 -20
v -18 6 -21
v 17 6 -21
v 8 4 23
v 10 4 23
v 12 4 23
v 14 4 23
v 8 4 22
v 10 4 22
v 12 4 22
v 14 4 22
v -18 5 -20
v 17 5 -20
v -18 5 -21
v 17 5 -21
v -21 6 -3
v -19 6 -3
v -21 6 -7
v -19 6 -7
v -21 6 -9
v -19 6 -9
v -21 6 -13
v -19 6 -13
v -9 23 16
v -8 23 16
v -5 23 16
v -4 23 16
v -1 23 16
v 0 23 16
v 3 23 16
v 4 23 16
v 7 23 16
v 8 23 16
v 11 23 16
v 12 23 16
v -9 23 9
v -8 23 9
v -5 23 9
v -4 23 9
v -1 23 9
v 0 23 9
v 3 23 9
v 4 23 9
v 7 23 9
v 8 23 9
v 11 23 9
v 12 23 9
v -19 24 23
v 21 24 23
v -18 24 22
v 20 24 22
v -19 24 16
v -18 24 16
v -16 24 16
v -15 24 16
v -12 24 16
v -9 24 16
v -8 24 16
v -5 24 16
v -4 24 16
v -1 24 16
v 0 24 16
v 3 24 16
v 4 24 16
v 7 24 16
v 8 24 16
v 11 24 16
v 12 24 16
v 15 24 16
v 16 24 16
v 20 24 16
v 21 24 16
v -19 24 9
v -18 24 9
v -16 24 9
v -15 24 9
v -12 24 9
v -11 24 9
v -9 24 9
v -8 24 9
v -5 24 9
v -4 24 9
v -1 24 9
v 0 24 9
v 3 24 9
v 4 24 9
v 7 24 9
v 8 24 9
v 11 24 9
v 12 24 9
v 15 24 9
v 16 24 9
v 20 24 9
v 21 24 9
v -19 24 -16
v -18 24 -16
v -12 24 -16
v -19 24 -17
v -18 24 -17
v -11 24 -17
v -18 24 -22
v 20 24 -22
v -19 24 -23
v 21 24 -23

# faces
f 5/11/1 2/11/1 1/11/1
f 6/11/1 2/11/1 5/11/1
f 7/11/1 4/11/1 3/11/1
f 8/11/1 4/11/1 7/11/1
f 13/13/1 11/13/1 10/13/1
f 14/13/1 11/13/1 13/13/1
f 15/13/1 11/13/1 14/13/1
f 16/13/1 11/13/1 15/13/1
f 17/11/1 12/11/1 11/11/1
f 18/11/1 12/11/1 17/11/1
f 19/11/1 12/11/1 18/11/1
f 20/11/1 12/11/1 19/11/1
f 21/11/1 12/11/1 20/11/1
f 22/11/1 12/11/1 21/11/1
f 24/11/1 10/11/1 9/11/1
f 25/11/1 12/11/1 22/11/1
f 27/11/1 17/11/1 11/11/1
f 28/11/1 19/11/1 18/11/1
f 29/11/1 19/11/1 28/11/1
f 30/11/1 21/11/1 20/11/1
f 31/6/1 22/6/1 21/6/1
f 31/11/1 21/11/1 30/11/1
f 32/11/1 26/11/1 25/11/1
f 32/6/1 22/6/1 31/6/1
f 32/11/1 25/11/1 22/11/1
f 33/13/1 13/13/1 10/13/1
f 33/14/1 14/14/1 13/14/1
f 34/13/1 15/13/1 14/13/1
f 34/14/1 14/14/1 33/14/1
f 35/14/1 16/14/1 15/14/1
f 35/13/1 15/13/1 34/13/1
f 36/13/1 11/13/1 16/13/1
f 36/14/1 16/14/1 35/14/1
f 37/13/1 35/13/1 34/13/1
f 37/13/1 33/13/1 10/13/1
f 37/13/1 36/13/1 35/13/1
f 37/13/1 34/13/1 33/13/1
f 37/11/1 24/11/1 23/11/1
f 37/11/1 10/11/1 24/11/1
f 38/11/1 29/11/1 28/11/1
f 38/13/1 36/13/1 37/13/1
f 38/13/1 11/13/1 36/13/1
f 38/11/1 32/11/1 31/11/1
f 38/11/1 30/11/1 29/11/1
f 38/11/1 27/11/1 11/11/1
f 38/11/1 28/11/1 27/11/1
f 38/11/1 31/11/1 30/11/1
f 39/11/1 37/11/1 23/11/1
f 40/14/1 38/14/1 37/14/1
f 40/11/1 37/11/1 39/11/1
f 41/11/1 32/11/1 38/11/1
f 41/14/1 38/14/1 40/14/1
f 42/11/1 26/11/1 32/11/1
f 42/11/1 32/11/1 41/11/1
f 43/3/1 40/3/1 39/3/1
f 43/13/1 41/13/1 40/13/1
f 44/3/1 42/3/1 41/3/1
f 44/13/1 41/13/1 43/13/1
f 45/3/1 42/3/1 44/3/1
f 46/3/1 43/3/1 39/3/1
f 46/14/1 44/14/1 43/14/1
f 47/7/1 45/7/1 44/7/1
f 47/14/1 44/14/1 46/14/1
f 48/7/1 45/7/1 47/7/1
f 49/3/1 48/3/1 47/3/1
f 50/3/1 48/3/1 49/3/1
f 51/3/1 48/3/1 50/3/1
f 52/3/1 48/3/1 51/3/1
f 53/3/1 48/3/1 52/3/1
f 54/3/1 48/3/1 53/3/1
f 55/3/1 48/3/1 54/3/1
f 56/3/1 48/3/1 55/3/1
f 57/3/1 49/3/1 47/3/1
f 57/10/1 50/10/1 49/10/1
f 58/3/1 51/3/1 50/3/1
f 58/10/1 50/10/1 57/10/1
f 59/3/1 57/3/1 47/3/1
f 59/3/1 58/3/1 57/3/1
f 60/3/1 51/3/1 58/3/1
f 60/3/1 58/3/1 59/3/1
f 61/3/1 59/3/1 47/3/1
f 61/10/1 60/10/1 59/10/1
f 62/3/1 51/3/1 60/3/1
f 62/10/1 60/10/1 61/10/1
f 63/10/1 52/10/1 51/10/1
f 63/3/1 51/3/1 62/3/1
f 64/3/1 53/3/1 52/3/1
f 64/10/1 52/10/1 63/10/1
f 65/3/1 62/3/1 61/3/1
f 65/3/1 53/3/1 64/3/1
f 65/3/1 64/3/1 63/3/1
f 65/3/1 63/3/1 62/3/1
f 65/10/1 54/10/1 53/10/1
f 66/10/1 54/10/1 65/10/1
f 67/3/1 55/3/1 54/3/1
f 67/10/1 54/10/1 66/10/1
f 68/10/1 56/10/1 55/10/1
f 68/3/1 55/3/1 67/3/1
f 69/10/1 67/10/1 66/10/1
f 69/3/1 66/3/1 65/3/1
f 69/10/1 68/10/1 67/10/1
f 70/10/1 68/10/1 69/10/1
f 71/3/1 70/3/1 69/3/1
f 71/10/1 68/10/1 70/10/1
f 72/3/1 48/3/1 56/3/1
f 72/10/1 68/10/1 71/10/1
f 72/10/1 56/10/1 68/10/1
f 73/3/1 46/3/1 39/3/1
f 74/13/1 47/13/1 46/13/1
f 74/3/1 46/3/1 73/3/1
f 75/3/1 71/3/1 69/3/1
f 75/13/1 47/13/1 74/13/1
f 75/3/1 69/3/1 65/3/1
f 75/3/1 72/3/1 71/3/1
f 75/3/1 65/3/1 61/3/1
f 75/3/1 61/3/1 47/3/1
f 76/3/1 48/3/1 72/3/1
f 76/3/1 72/3/1 75/3/1
f 76/7/1 45/7/1 48/7/1
f 77/3/1 42/3/1 45/3/1
f 77/7/1 45/7/1 76/7/1
f 78/3/1 42/3/1 77/3/1
f 79/2/1 74/2/1 73/2/1
f 80/12/1 75/12/1 74/12/1
f 80/2/1 74/2/1 79/2/1
f 81/2/1 76/2/1 75/2/1
f 81/12/1 75/12/1 80/12/1
f 82/7/1 77/7/1 76/7/1
f 82/2/1 76/2/1 81/2/1
f 83/2/1 78/2/1 77/2/1
f 83/7/1 77/7/1 82/7/1
f 84/2/1 78/2/1 83/2/1
f 87/7/1 86/7/1 85/7/1
f 88/7/1 86/7/1 87/7/1
f 91/7/1 90/7/1 89/7/1
f 92/7/1 90/7/1 91/7/1
f 95/11/1 94/11/1 93/11/1
f 96/11/1 94/11/1 95/11/1
f 99/7/1 98/7/1 97/7/1
f 100/7/1 98/7/1 99/7/1
f 103/7/1 102/7/1 101/7/1
f 104/7/1 102/7/1 103/7/1
f 107/5/1 106/5/1 105/5/1
f 108/5/1 106/5/1 107/5/1
f 111/7/1 110/7/1 109/7/1
f 112/7/1 110/7/1 111/7/1
f 115/1/1 114/1/1 113/1/1
f 116/1/1 114/1/1 115/1/1
f 119/7/1 118/7/1 117/7/1
f 120/7/1 118/7/1 119/7/1
f 123/11/1 122/11/1 121/11/1
f 124/11/1 122/11/1 123/11/1
f 125/11/2 126/11/2 127/11/2
f 127/11/2 126/11/2 128/11/2
f 129/7/2 130/7/2 131/7/2
f 131/7/2 130/7/2 132/7/2
f 133/7/2 134/7/2 135/7/2
f 135/7/2 134/7/2 136/7/2
f 137/11/2 138/11/2 139/11/2
f 139/11/2 138/11/2 140/11/2
f 141/7/2 142/7/2 143/7/2
f 143/7/2 142/7/2 144/7/2
f 145/7/2 146/7/2 147/7/2
f 147/7/2 146/7/2 148/7/2
f 149/7/2 150/7/2 151/7/2
f 151/7/2 150/7/2 152/7/2
f 153/5/2 154/5/2 155/5/2
f 155/5/2 154/5/2 156/5/2
f 157/7/2 158/7/2 159/7/2
f 159/7/2 158/7/2 160/7/2
f 161/1/2 162/1/2 163/1/2
f 163/1/2 162/1/2 164/1/2
f 165/11/2 166/11/2 170/11/2
f 167/11/2 168/11/2 171/11/2
f 169/11/2 170/11/2 173/11/2
f 166/13/2 167/13/2 173/13/2
f 170/11/2 166/11/2 173/11/2
f 171/11/2 172/11/2 174/11/2
f 173/13/2 167/13/2 174/13/2
f 167/11/2 171/11/2 174/11/2
f 169/11/2 173/11/2 175/11/2
f 173/14/2 174/14/2 176/14/2
f 175/11/2 173/11/2 176/11/2
f 174/11/2 172/11/2 177/11/2
f 176/14/2 174/14/2 177/14/2
f 177/11/2 172/11/2 178/11/2
f 175/3/2 176/3/2 179/3/2
f 176/13/2 177/13/2 180/13/2
f 179/3/2 176/3/2 180/3/2
f 177/3/2 178/3/2 181/3/2
f 180/13/2 177/13/2 181/13/2
f 181/3/2 178/3/2 182/3/2
f 179/2/2 180/2/2 183/2/2
f 180/12/2 181/12/2 184/12/2
f 183/2/2 180/2/2 184/2/2
f 181/2/2 182/2/2 185/2/2
f 184/12/2 181/12/2 185/12/2
f 185/2/2 182/2/2 186/2/2
f 193/5/3 192/5/3 191/5/3
f 194/5/3 192/5/3 193/5/3
f 197/1/3 196/1/3 195/1/3
f 198/1/3 196/1/3 197/1/3
f 199/11/3 188/11/3 187/11/3
f 200/3/3 189/3/3 188/3/3
f 200/11/3 188/11/3 199/11/3
f 201/2/3 190/2/3 189/2/3
f 201/3/3 189/3/3 200/3/3
f 202/2/3 190/2/3 201/2/3
f 205/11/3 204/11/3 203/11/3
f 206/11/3 204/11/3 205/11/3
f 208/11/3 204/11/3 206/11/3
f 209/11/3 208/11/3 207/11/3
f 210/11/3 204/11/3 208/11/3
f 210/11/3 208/11/3 209/11/3
f 211/13/3 210/13/3 209/13/3
f 212/13/3 210/13/3 211/13/3
f 213/13/3 211/13/3 209/13/3
f 214/13/3 210/13/3 212/13/3
f 215/13/3 213/13/3 209/13/3
f 215/13/3 214/13/3 213/13/3
f 216/13/3 210/13/3 214/13/3
f 216/13/3 214/13/3 215/13/3
f 217/13/3 215/13/3 209/13/3
f 218/13/3 210/13/3 216/13/3
f 219/11/3 209/11/3 207/11/3
f 219/13/3 218/13/3 217/13/3
f 219/13/3 217/13/3 209/13/3
f 220/13/3 210/13/3 218/13/3
f 220/13/3 218/13/3 219/13/3
f 221/11/3 219/11/3 207/11/3
f 221/11/3 220/11/3 219/11/3
f 222/11/3 220/11/3 221/11/3
f 225/11/3 224/11/3 223/11/3
f 226/11/3 224/11/3 225/11/3
f 229/3/3 228/3/3 227/3/3
f 230/3/3 228/3/3 229/3/3
f 233/3/3 232/3/3 231/3/3
f 234/3/3 232/3/3 233/3/3
f 237/3/3 236/3/3 235/3/3
f 238/3/3 236/3/3 237/3/3
f 241/3/3 240/3/3 239/3/3
f 242/3/3 240/3/3 241/3/3
f 245/3/3 244/3/3 243/3/3
f 246/3/3 244/3/3 245/3/3
f 249/3/3 248/3/3 247/3/3
f 250/3/3 248/3/3 249/3/3
f 253/11/3 252/11/3 251/11/3
f 254/11/3 252/11/3 253/11/3
f 257/11/3 256/11/3 255/11/3
f 258/11/3 256/11/3 257/11/3
f 261/11/3 260/11/3 259/11/3
f 262/11/3 260/11/3 261/11/3
f 263/3/4 264/3/4 265/3/4
f 265/3/4 264/3/4 266/3/4
f 267/3/4 268/3/4 269/3/4
f 269/3/4 268/3/4 270/3/4
f 271/3/4 272/3/4 273/3/4
f 273/3/4 272/3/4 274/3/4
f 275/3/4 276/3/4 277/3/4
f 277/3/4 276/3/4 278/3/4
f 279/3/4 280/3/4 281/3/4
f 281/3/4 280/3/4 282/3/4
f 283/3/4 284/3/4 285/3/4
f 285/3/4 284/3/4 286/3/4
f 287/11/4 288/11/4 289/11/4
f 289/11/4 288/11/4 290/11/4
f 291/11/4 292/11/4 293/11/4
f 293/11/4 292/11/4 294/11/4
f 295/11/4 296/11/4 297/11/4
f 297/11/4 296/11/4 298/11/4
f 299/11/4 300/11/4 301/11/4
f 301/11/4 300/11/4 302/11/4
f 303/11/4 304/11/4 307/11/4
f 304/3/4 305/3/4 308/3/4
f 307/11/4 304/11/4 308/11/4
f 305/2/4 306/2/4 309/2/4
f 308/3/4 305/3/4 309/3/4
f 309/2/4 306/2/4 310/2/4
f 315/11/5 312/11/5 311/11/5
f 316/11/5 314/11/5 313/11/5
f 317/11/5 315/11/5 311/11/5
f 317/11/5 316/11/5 315/11/5
f 318/11/5 316/11/5 317/11/5
f 319/11/5 314/11/5 316/11/5
f 319/11/5 316/11/5 318/11/5
f 320/11/5 314/11/5 319/11/5
f 321/13/5 318/13/5 317/13/5
f 322/11/5 319/11/5 318/11/5
f 322/13/5 318/13/5 321/13/5
f 323/13/5 320/13/5 319/13/5
f 323/11/5 319/11/5 322/11/5
f 324/13/5 320/13/5 323/13/5
f 325/11/5 322/11/5 321/11/5
f 325/11/5 323/11/5 322/11/5
f 325/11/5 324/11/5 323/11/5
f 326/11/5 324/11/5 325/11/5
f 333/5/5 328/5/5 327/5/5
f 334/5/5 328/5/5 333/5/5
f 335/1/5 330/1/5 329/1/5
f 336/1/5 330/1/5 335/1/5
f 337/11/5 332/11/5 331/11/5
f 338/11/5 332/11/5 337/11/5
f 341/11/5 340/11/5 339/11/5
f 342/11/5 340/11/5 341/11/5
f 345/11/5 344/11/5 343/11/5
f 346/11/5 344/11/5 345/11/5
f 349/11/5 348/11/5 347/11/5
f 350/11/5 348/11/5 349/11/5
f 351/11/5 348/11/5 350/11/5
f 352/11/5 348/11/5 351/11/5
f 355/11/5 354/11/5 353/11/5
f 356/11/5 354/11/5 355/11/5
f 359/11/5 358/11/5 357/11/5
f 360/11/5 358/11/5 359/11/5
f 361/5/6 362/5/6 365/5/6
f 365/5/6 362/5/6 366/5/6
f 363/1/6 364/1/6 367/1/6
f 367/1/6 364/1/6 368/1/6
f 369/11/6 370/11/6 371/11/6
f 371/11/6 370/11/6 372/11/6
f 373/11/6 374/11/6 375/11/6
f 375/11/6 374/11/6 376/11/6
f 377/11/6 378/11/6 379/11/6
f 379/11/6 378/11/6 380/11/6
f 381/8/6 382/8/6 393/8/6
f 393/8/6 382/8/6 394/8/6
f 383/8/6 384/8/6 395/8/6
f 395/8/6 384/8/6 396/8/6
f 385/8/6 386/8/6 397/8/6
f 397/8/6 386/8/6 398/8/6
f 387/8/6 388/8/6 399/8/6
f 399/8/6 388/8/6 400/8/6
f 389/8/6 390/8/6 401/8/6
f 401/8/6 390/8/6 402/8/6
f 391/9/6 392/9/6 403/9/6
f 403/9/6 392/9/6 404/9/6
f 405/2/6 406/2/6 407/2/6
f 407/2/6 406/2/6 408/2/6
f 405/2/6 407/2/6 409/2/6
f 407/3/6 408/3/6 410/3/6
f 409/2/6 407/2/6 410/2/6
f 410/3/6 408/3/6 411/3/6
f 411/3/6 408/3/6 412/3/6
f 412/3/6 408/3/6 413/3/6
f 413/3/6 408/3/6 414/3/6
f 414/3/6 408/3/6 415/3/6
f 415/3/6 408/3/6 416/3/6
f 416/3/6 408/3/6 417/3/6
f 417/3/6 408/3/6 418/3/6
f 418/3/6 408/3/6 419/3/6
f 419/3/6 408/3/6 420/3/6
f 420/3/6 408/3/6 421/3/6
f 421/3/6 408/3/6 422/3/6
f 422/3/6 408/3/6 423/3/6
f 423/3/6 408/3/6 424/3/6
f 424/3/6 408/3/6 425/3/6
f 425/3/6 408/3/6 426/3/6
f 426/3/6 408/3/6 427/3/6
f 408/2/6 406/2/6 428/2/6
f 427/3/6 408/3/6 428/3/6
f 428/2/6 406/2/6 429/2/6
f 409/12/6 410/12/6 430/12/6
f 410/13/6 411/13/6 431/13/6
f 430/12/6 410/12/6 431/12/6
f 411/14/6 412/14/6 432/14/6
f 431/13/6 411/13/6 432/13/6
f 412/13/6 413/13/6 433/13/6
f 432/14/6 412/14/6 433/14/6
f 413/7/6 414/7/6 434/7/6
f 433/13/6 413/13/6 434/13/6
f 434/7/6 414/7/6 435/7/6
f 435/7/6 414/7/6 436/7/6
f 415/7/6 416/7/6 437/7/6
f 437/7/6 416/7/6 438/7/6
f 417/7/6 418/7/6 439/7/6
f 439/7/6 418/7/6 440/7/6
f 419/7/6 420/7/6 441/7/6
f 441/7/6 420/7/6 442/7/6
f 421/7/6 422/7/6 443/7/6
f 443/7/6 422/7/6 444/7/6
f 423/7/6 424/7/6 445/7/6
f 445/7/6 424/7/6 446/7/6
f 425/7/6 426/7/6 447/7/6
f 426/14/6 427/14/6 448/14/6
f 447/7/6 426/7/6 448/7/6
f 427/13/6 428/13/6 449/13/6
f 448/14/6 427/14/6 449/14/6
f 428/12/6 429/12/6 450/12/6
f 449/13/6 428/13/6 450/13/6
f 450/12/6 429/12/6 451/12/6
f 430/2/6 431/2/6 452/2/6
f 431/3/6 432/3/6 453/3/6
f 452/2/6 431/2/6 453/2/6
f 432/3/6 433/3/6 453/3/6
f 433/3/6 434/3/6 453/3/6
f 434/7/6 435/7/6 454/7/6
f 453/3/6 434/3/6 454/3/6
f 452/7/6 453/7/6 455/7/6
f 453/7/6 454/7/6 455/7/6
f 455/7/6 454/7/6 456/7/6
f 446/3/6 447/3/6 457/3/6
f 456/7/6 454/7/6 457/7/6
f 448/3/6 449/3/6 457/3/6
f 435/3/6 436/3/6 457/3/6
f 447/3/6 448/3/6 457/3/6
f 444/3/6 445/3/6 457/3/6
f 437/3/6 438/3/6 457/3/6
f 442/3/6 443/3/6 457/3/6
f 445/3/6 446/3/6 457/3/6
f 440/3/6 441/3/6 457/3/6
f 439/3/6 440/3/6 457/3/6
f 438/3/6 439/3/6 457/3/6
f 443/3/6 444/3/6 457/3/6
f 436/3/6 437/3/6 457/3/6
f 441/3/6 442/3/6 457/3/6
f 454/7/6 435/7/6 457/7/6
f 449/3/6 450/3/6 457/3/6
f 455/2/6 456/2/6 458/2/6
f 456/3/6 457/3/6 458/3/6
f 457/3/6 450/3/6 459/3/6
f 458/3/6 457/3/6 459/3/6
f 450/2/6 451/2/6 459/2/6
f 455/2/6 458/2/6 460/2/6
f 458/2/6 459/2/6 460/2/6
f 459/2/6 451/2/6 461/2/6
f 460/2/6 459/2/6 461/2/6
