# MagicaVoxel @ ephtracy

# material
mtllib TextUI.mtl
usemtl palette

# normals
vn -1 0 0
vn 1 0 0
vn 0 0 1
vn 0 0 -1
vn 0 -1 0
vn 0 1 0

# texcoords
vt 0.0175781 0.5
vt 0.279297 0.5
vt 0.306641 0.5
vt 0.419922 0.5
vt 0.958984 0.5

# verts
v -7.5 0 6.5
v -7.5 0 -6.5
v -7.5 1 4.5
v -7.5 1 -4.5
v -7.5 2 4.5
v -7.5 2 -4.5
v -7.5 3 3.5
v -7.5 3 2.5
v -7.5 3 0.5
v -7.5 3 -0.5
v -7.5 3 -2.5
v -7.5 3 -3.5
v -7.5 4 0.5
v -7.5 4 -0.5
v -7.5 8 3.5
v -7.5 8 2.5
v -7.5 8 -2.5
v -7.5 8 -3.5
v -7.5 10 6.5
v -7.5 10 -6.5
v -5.5 10 4.5
v -5.5 10 -4.5
v -5.5 12 4.5
v -5.5 12 -4.5
v -4.5 12 3.5
v -4.5 12 -3.5
v -4.5 14 3.5
v -4.5 14 -3.5
v 4.5 12 3.5
v 4.5 12 -3.5
v 4.5 14 3.5
v 4.5 14 -3.5
v 5.5 10 4.5
v 5.5 10 -4.5
v 5.5 12 4.5
v 5.5 12 -4.5
v 7.5 0 6.5
v 7.5 0 -6.5
v 7.5 10 6.5
v 7.5 10 -6.5
v -7.5 0 6.5
v -7.5 10 6.5
v 7.5 0 6.5
v 7.5 10 6.5
v -5.5 10 4.5
v -5.5 12 4.5
v 5.5 10 4.5
v 5.5 12 4.5
v -4.5 12 3.5
v -4.5 14 3.5
v 4.5 12 3.5
v 4.5 14 3.5
v -4.5 12 -3.5
v -4.5 14 -3.5
v 4.5 12 -3.5
v 4.5 14 -3.5
v -5.5 10 -4.5
v -5.5 12 -4.5
v 5.5 10 -4.5
v 5.5 12 -4.5
v -7.5 0 -6.5
v -7.5 10 -6.5
v 7.5 0 -6.5
v 7.5 10 -6.5
v -7.5 0 6.5
v 7.5 0 6.5
v -7.5 0 -6.5
v 7.5 0 -6.5
v -7.5 10 6.5
v 7.5 10 6.5
v -5.5 10 4.5
v 5.5 10 4.5
v -5.5 10 -4.5
v 5.5 10 -4.5
v -7.5 10 -6.5
v 7.5 10 -6.5
v -5.5 12 4.5
v 5.5 12 4.5
v -4.5 12 3.5
v 4.5 12 3.5
v -4.5 12 -3.5
v 4.5 12 -3.5
v -5.5 12 -4.5
v 5.5 12 -4.5
v -4.5 14 3.5
v 4.5 14 3.5
v -4.5 14 -3.5
v 4.5 14 -3.5

# faces
f 3/2/1 2/2/1 1/2/1
f 4/2/1 2/2/1 3/2/1
f 5/2/1 3/2/1 1/2/1
f 5/5/1 4/5/1 3/5/1
f 6/2/1 2/2/1 4/2/1
f 6/5/1 4/5/1 5/5/1
f 7/2/1 6/2/1 5/2/1
f 8/2/1 6/2/1 7/2/1
f 9/2/1 6/2/1 8/2/1
f 10/2/1 6/2/1 9/2/1
f 11/2/1 6/2/1 10/2/1
f 12/2/1 6/2/1 11/2/1
f 13/2/1 9/2/1 8/2/1
f 13/5/1 10/5/1 9/5/1
f 14/2/1 11/2/1 10/2/1
f 14/5/1 10/5/1 13/5/1
f 15/2/1 7/2/1 5/2/1
f 15/5/1 8/5/1 7/5/1
f 16/2/1 14/2/1 13/2/1
f 16/5/1 8/5/1 15/5/1
f 16/2/1 13/2/1 8/2/1
f 17/2/1 11/2/1 14/2/1
f 17/2/1 14/2/1 16/2/1
f 17/5/1 12/5/1 11/5/1
f 18/2/1 6/2/1 12/2/1
f 18/5/1 12/5/1 17/5/1
f 19/2/1 5/2/1 1/2/1
f 19/2/1 16/2/1 15/2/1
f 19/2/1 18/2/1 17/2/1
f 19/2/1 17/2/1 16/2/1
f 19/2/1 15/2/1 5/2/1
f 20/2/1 6/2/1 18/2/1
f 20/2/1 18/2/1 19/2/1
f 20/2/1 2/2/1 6/2/1
f 23/1/1 22/1/1 21/1/1
f 24/1/1 22/1/1 23/1/1
f 27/1/1 26/1/1 25/1/1
f 28/1/1 26/1/1 27/1/1
f 29/1/2 30/1/2 31/1/2
f 31/1/2 30/1/2 32/1/2
f 33/1/2 34/1/2 35/1/2
f 35/1/2 34/1/2 36/1/2
f 37/2/2 38/2/2 39/2/2
f 39/2/2 38/2/2 40/2/2
f 43/2/3 42/2/3 41/2/3
f 44/2/3 42/2/3 43/2/3
f 47/1/3 46/1/3 45/1/3
f 48/1/3 46/1/3 47/1/3
f 51/1/3 50/1/3 49/1/3
f 52/1/3 50/1/3 51/1/3
f 53/1/4 54/1/4 55/1/4
f 55/1/4 54/1/4 56/1/4
f 57/1/4 58/1/4 59/1/4
f 59/1/4 58/1/4 60/1/4
f 61/2/4 62/2/4 63/2/4
f 63/2/4 62/2/4 64/2/4
f 67/2/5 66/2/5 65/2/5
f 68/2/5 66/2/5 67/2/5
f 69/2/6 70/2/6 71/2/6
f 71/2/6 70/2/6 72/2/6
f 69/2/6 71/2/6 73/2/6
f 72/2/6 70/2/6 74/2/6
f 69/2/6 73/2/6 75/2/6
f 73/2/6 74/2/6 75/2/6
f 74/2/6 70/2/6 76/2/6
f 75/2/6 74/2/6 76/2/6
f 77/1/6 78/1/6 79/1/6
f 79/1/6 78/1/6 80/1/6
f 77/1/6 79/1/6 81/1/6
f 80/1/6 78/1/6 82/1/6
f 77/1/6 81/1/6 83/1/6
f 81/1/6 82/1/6 83/1/6
f 82/1/6 78/1/6 84/1/6
f 83/1/6 82/1/6 84/1/6
f 85/1/6 86/1/6 87/1/6
f 87/1/6 86/1/6 88/1/6
