# MagicaVoxel @ ephtracy

# material
mtllib Glove.mtl
usemtl palette

# normals
vn -1 0 0
vn 1 0 0
vn 0 0 1
vn 0 0 -1
vn 0 -1 0
vn 0 1 0

# texcoords
vt 0.841797 0.5
vt 0.845703 0.5
vt 0.861328 0.5
vt 0.958984 0.5
vt 0.994141 0.5

# verts
v -9 2 7
v -9 2 -7
v -9 3 8
v -9 3 7
v -9 3 -7
v -9 3 -8
v -9 12 8
v -9 12 7
v -9 12 5
v -9 12 -5
v -9 12 -7
v -9 12 -8
v -9 13 7
v -9 13 5
v -9 13 -5
v -9 13 -7
v -4 3 7
v -4 3 6
v -4 3 -6
v -4 3 -7
v -4 5 8
v -4 5 7
v -4 5 6
v -4 5 -6
v -4 5 -7
v -4 5 -8
v -4 10 6
v -4 10 3
v -4 10 -3
v -4 10 -6
v -4 11 8
v -4 11 7
v -4 11 -7
v -4 11 -8
v -4 13 7
v -4 13 6
v -4 13 3
v -4 13 -3
v -4 13 -6
v -4 13 -7
v -4 14 6
v -4 14 5
v -4 14 -5
v -4 14 -6
v -4 15 5
v -4 15 -5
v 0 0 7
v 0 0 -7
v 0 1 8
v 0 1 7
v 0 1 -7
v 0 1 -8
v 0 2 6
v 0 2 -6
v 0 3 7
v 0 3 6
v 0 3 -6
v 0 3 -7
v 0 4 8
v 0 4 7
v 0 4 -7
v 0 4 -8
v 1 0 8
v 1 0 7
v 1 0 -7
v 1 0 -8
v 1 1 8
v 1 1 7
v 1 1 -7
v 1 1 -8
v 4 3 8
v 4 3 7
v 4 3 -7
v 4 3 -8
v 4 5 8
v 4 5 7
v 4 5 -7
v 4 5 -8
v -5 2 7
v -5 2 6
v -5 2 -6
v -5 2 -7
v -5 3 8
v -5 3 7
v -5 3 6
v -5 3 -6
v -5 3 -7
v -5 3 -8
v -5 10 6
v -5 10 3
v -5 10 -3
v -5 10 -6
v -5 12 8
v -5 12 7
v -5 12 5
v -5 12 3
v -5 12 -3
v -5 12 -5
v -5 12 -7
v -5 12 -8
v -5 13 7
v -5 13 5
v -5 13 3
v -5 13 -3
v -5 13 -5
v -5 13 -7
v 3 3 8
v 3 3 7
v 3 3 -7
v 3 3 -8
v 3 4 8
v 3 4 7
v 3 4 -7
v 3 4 -8
v 5 12 7
v 5 12 6
v 5 12 -6
v 5 12 -7
v 5 13 7
v 5 13 6
v 5 13 5
v 5 13 -5
v 5 13 -6
v 5 13 -7
v 5 14 6
v 5 14 5
v 5 14 4
v 5 14 -4
v 5 14 -5
v 5 14 -6
v 5 15 5
v 5 15 4
v 5 15 -4
v 5 15 -5
v 6 13 5
v 6 13 4
v 6 13 -4
v 6 13 -5
v 6 14 5
v 6 14 4
v 6 14 3
v 6 14 -3
v 6 14 -4
v 6 14 -5
v 6 15 4
v 6 15 3
v 6 15 -3
v 6 15 -4
v 7 12 6
v 7 12 5
v 7 12 -5
v 7 12 -6
v 7 13 6
v 7 13 5
v 7 13 4
v 7 13 3
v 7 13 -3
v 7 13 -4
v 7 13 -5
v 7 13 -6
v 7 14 4
v 7 14 3
v 7 14 -3
v 7 14 -4
v 7 15 3
v 7 15 -3
v 8 0 8
v 8 0 7
v 8 0 -7
v 8 0 -8
v 8 1 8
v 8 1 7
v 8 1 -7
v 8 1 -8
v 8 10 8
v 8 10 7
v 8 10 -7
v 8 10 -8
v 8 11 8
v 8 11 7
v 8 11 6
v 8 11 -6
v 8 11 -7
v 8 11 -8
v 8 12 7
v 8 12 6
v 8 12 5
v 8 12 4
v 8 12 -4
v 8 12 -5
v 8 12 -6
v 8 12 -7
v 8 13 5
v 8 13 4
v 8 13 3
v 8 13 -3
v 8 13 -4
v 8 13 -5
v 8 14 3
v 8 14 -3
v 9 0 7
v 9 0 -7
v 9 1 8
v 9 1 7
v 9 1 -7
v 9 1 -8
v 9 10 8
v 9 10 7
v 9 10 -7
v 9 10 -8
v 9 11 7
v 9 11 6
v 9 11 -6
v 9 11 -7
v 9 12 6
v 9 12 4
v 9 12 -4
v 9 12 -6
v 9 13 4
v 9 13 -4
v -9 3 8
v -9 12 8
v -5 3 8
v -5 12 8
v -4 5 8
v -4 11 8
v 0 1 8
v 0 4 8
v 1 0 8
v 1 1 8
v 3 3 8
v 3 4 8
v 4 3 8
v 4 5 8
v 8 0 8
v 8 1 8
v 8 10 8
v 8 11 8
v 9 1 8
v 9 10 8
v -9 2 7
v -9 3 7
v -9 12 7
v -9 13 7
v -5 2 7
v -5 3 7
v -5 12 7
v -5 13 7
v -4 3 7
v -4 5 7
v -4 11 7
v -4 13 7
v 0 0 7
v 0 1 7
v 0 3 7
v 0 4 7
v 1 0 7
v 1 1 7
v 3 3 7
v 3 4 7
v 4 3 7
v 4 5 7
v 5 12 7
v 5 13 7
v 8 0 7
v 8 1 7
v 8 10 7
v 8 11 7
v 8 12 7
v 9 0 7
v 9 1 7
v 9 10 7
v 9 11 7
v -5 2 6
v -5 3 6
v -5 10 6
v -4 3 6
v -4 5 6
v -4 10 6
v -4 13 6
v -4 14 6
v 0 2 6
v 0 3 6
v 5 12 6
v 5 13 6
v 5 14 6
v 7 12 6
v 7 13 6
v 8 11 6
v 8 12 6
v 9 11 6
v 9 12 6
v -4 14 5
v -4 15 5
v 5 13 5
v 5 14 5
v 5 15 5
v 6 13 5
v 6 14 5
v 7 12 5
v 7 13 5
v 8 12 5
v 8 13 5
v 5 14 4
v 5 15 4
v 6 13 4
v 6 14 4
v 6 15 4
v 7 13 4
v 7 14 4
v 8 12 4
v 8 13 4
v 9 12 4
v 9 13 4
v -5 10 3
v -5 12 3
v -5 13 3
v -4 10 3
v -4 13 3
v 6 14 3
v 6 15 3
v 7 13 3
v 7 14 3
v 7 15 3
v 8 13 3
v 8 14 3
v -5 10 -3
v -5 12 -3
v -5 13 -3
v -4 10 -3
v -4 13 -3
v 6 14 -3
v 6 15 -3
v 7 13 -3
v 7 14 -3
v 7 15 -3
v 8 13 -3
v 8 14 -3
v 5 14 -4
v 5 15 -4
v 6 13 -4
v 6 14 -4
v 6 15 -4
v 7 13 -4
v 7 14 -4
v 8 12 -4
v 8 13 -4
v 9 12 -4
v 9 13 -4
v -4 14 -5
v -4 15 -5
v 5 13 -5
v 5 14 -5
v 5 15 -5
v 6 13 -5
v 6 14 -5
v 7 12 -5
v 7 13 -5
v 8 12 -5
v 8 13 -5
v -5 2 -6
v -5 3 -6
v -5 10 -6
v -4 3 -6
v -4 5 -6
v -4 10 -6
v -4 13 -6
v -4 14 -6
v 0 2 -6
v 0 3 -6
v 5 12 -6
v 5 13 -6
v 5 14 -6
v 7 12 -6
v 7 13 -6
v 8 11 -6
v 8 12 -6
v 9 11 -6
v 9 12 -6
v -9 2 -7
v -9 3 -7
v -9 12 -7
v -9 13 -7
v -5 2 -7
v -5 3 -7
v -5 12 -7
v -5 13 -7
v -4 3 -7
v -4 5 -7
v -4 11 -7
v -4 13 -7
v 0 0 -7
v 0 1 -7
v 0 3 -7
v 0 4 -7
v 1 0 -7
v 1 1 -7
v 3 3 -7
v 3 4 -7
v 4 3 -7
v 4 5 -7
v 5 12 -7
v 5 13 -7
v 8 0 -7
v 8 1 -7
v 8 10 -7
v 8 11 -7
v 8 12 -7
v 9 0 -7
v 9 1 -7
v 9 10 -7
v 9 11 -7
v -9 3 -8
v -9 12 -8
v -5 3 -8
v -5 12 -8
v -4 5 -8
v -4 11 -8
v 0 1 -8
v 0 4 -8
v 1 0 -8
v 1 1 -8
v 3 3 -8
v 3 4 -8
v 4 3 -8
v 4 5 -8
v 8 0 -8
v 8 1 -8
v 8 10 -8
v 8 11 -8
v 9 1 -8
v 9 10 -8
v 1 0 8
v 8 0 8
v 0 0 7
v 1 0 7
v 8 0 7
v 9 0 7
v 0 0 -7
v 1 0 -7
v 8 0 -7
v 9 0 -7
v 1 0 -8
v 8 0 -8
v 0 1 8
v 1 1 8
v 8 1 8
v 9 1 8
v 0 1 7
v 1 1 7
v 8 1 7
v 9 1 7
v 0 1 -7
v 1 1 -7
v 8 1 -7
v 9 1 -7
v 0 1 -8
v 1 1 -8
v 8 1 -8
v 9 1 -8
v -9 2 7
v -5 2 7
v -5 2 6
v 0 2 6
v -5 2 -6
v 0 2 -6
v -9 2 -7
v -5 2 -7
v -9 3 8
v -5 3 8
v -9 3 7
v -5 3 7
v -4 3 7
v 0 3 7
v -4 3 6
v 0 3 6
v -4 3 -6
v 0 3 -6
v -9 3 -7
v -5 3 -7
v -4 3 -7
v 0 3 -7
v -9 3 -8
v -5 3 -8
v -4 5 8
v 4 5 8
v -4 5 7
v 4 5 7
v -4 5 -7
v 4 5 -7
v -4 5 -8
v 4 5 -8
v 3 3 8
v 4 3 8
v 3 3 7
v 4 3 7
v 3 3 -7
v 4 3 -7
v 3 3 -8
v 4 3 -8
v 0 4 8
v 3 4 8
v 0 4 7
v 3 4 7
v 0 4 -7
v 3 4 -7
v 0 4 -8
v 3 4 -8
v 8 10 8
v 9 10 8
v 8 10 7
v 9 10 7
v -5 10 6
v -4 10 6
v -5 10 3
v -4 10 3
v -5 10 -3
v -4 10 -3
v -5 10 -6
v -4 10 -6
v 8 10 -7
v 9 10 -7
v 8 10 -8
v 9 10 -8
v -4 11 8
v 8 11 8
v -4 11 7
v 8 11 7
v 9 11 7
v 8 11 6
v 9 11 6
v 8 11 -6
v 9 11 -6
v -4 11 -7
v 8 11 -7
v 9 11 -7
v -4 11 -8
v 8 11 -8
v -9 12 8
v -5 12 8
v -9 12 7
v -5 12 7
v 5 12 7
v 8 12 7
v 5 12 6
v 7 12 6
v 8 12 6
v 9 12 6
v 7 12 5
v 8 12 5
v 8 12 4
v 9 12 4
v 8 12 -4
v 9 12 -4
v 7 12 -5
v 8 12 -5
v 5 12 -6
v 7 12 -6
v 8 12 -6
v 9 12 -6
v -9 12 -7
v -5 12 -7
v 5 12 -7
v 8 12 -7
v -9 12 -8
v -5 12 -8
v -9 13 7
v -5 13 7
v -4 13 7
v 5 13 7
v -4 13 6
v 5 13 6
v 7 13 6
v -9 13 5
v -5 13 5
v 5 13 5
v 6 13 5
v 7 13 5
v 8 13 5
v 6 13 4
v 7 13 4
v 8 13 4
v 9 13 4
v -8 13 3
v -6 13 3
v -5 13 3
v -4 13 3
v 7 13 3
v 8 13 3
v -8 13 2
v -6 13 2
v -8 13 1
v -6 13 1
v -8 13 -0
v -6 13 -0
v -7 13 -1
v -6 13 -1
v -8 13 -2
v -7 13 -2
v -8 13 -3
v -6 13 -3
v -5 13 -3
v -4 13 -3
v 7 13 -3
v 8 13 -3
v 6 13 -4
v 7 13 -4
v 8 13 -4
v 9 13 -4
v -9 13 -5
v -5 13 -5
v 5 13 -5
v 6 13 -5
v 7 13 -5
v 8 13 -5
v -4 13 -6
v 5 13 -6
v 7 13 -6
v -9 13 -7
v -5 13 -7
v -4 13 -7
v 5 13 -7
v -4 14 6
v 5 14 6
v -4 14 5
v 5 14 5
v 6 14 5
v 5 14 4
v 6 14 4
v 7 14 4
v 6 14 3
v 7 14 3
v 8 14 3
v 6 14 -3
v 7 14 -3
v 8 14 -3
v 5 14 -4
v 6 14 -4
v 7 14 -4
v -4 14 -5
v 5 14 -5
v 6 14 -5
v -4 14 -6
v 5 14 -6
v -4 15 5
v 5 15 5
v 5 15 4
v 6 15 4
v 6 15 3
v 7 15 3
v 6 15 -3
v 7 15 -3
v 5 15 -4
v 6 15 -4
v -4 15 -5
v 5 15 -5

# faces
f 4/2/1 2/2/1 1/2/1
f 5/2/1 2/2/1 4/2/1
f 7/2/1 4/2/1 3/2/1
f 7/2/1 6/2/1 5/2/1
f 7/2/1 5/2/1 4/2/1
f 8/2/1 6/2/1 7/2/1
f 9/2/1 6/2/1 8/2/1
f 10/2/1 6/2/1 9/2/1
f 11/2/1 6/2/1 10/2/1
f 12/2/1 6/2/1 11/2/1
f 13/2/1 9/2/1 8/2/1
f 14/4/1 10/4/1 9/4/1
f 14/2/1 9/2/1 13/2/1
f 15/2/1 11/2/1 10/2/1
f 15/4/1 10/4/1 14/4/1
f 16/2/1 11/2/1 15/2/1
f 22/3/1 18/3/1 17/3/1
f 23/3/1 18/3/1 22/3/1
f 24/3/1 20/3/1 19/3/1
f 25/3/1 20/3/1 24/3/1
f 27/2/1 23/2/1 22/2/1
f 27/2/1 22/2/1 21/2/1
f 30/2/1 26/2/1 25/2/1
f 30/2/1 25/2/1 24/2/1
f 31/2/1 28/2/1 27/2/1
f 31/2/1 27/2/1 21/2/1
f 32/2/1 28/2/1 31/2/1
f 33/2/1 30/2/1 29/2/1
f 33/2/1 26/2/1 30/2/1
f 34/2/1 26/2/1 33/2/1
f 35/2/1 28/2/1 32/2/1
f 36/2/1 28/2/1 35/2/1
f 37/2/1 28/2/1 36/2/1
f 38/2/1 33/2/1 29/2/1
f 39/2/1 33/2/1 38/2/1
f 40/2/1 33/2/1 39/2/1
f 41/2/1 37/2/1 36/2/1
f 41/2/1 39/2/1 38/2/1
f 41/2/1 38/2/1 37/2/1
f 42/2/1 39/2/1 41/2/1
f 43/2/1 39/2/1 42/2/1
f 44/2/1 39/2/1 43/2/1
f 45/2/1 43/2/1 42/2/1
f 46/2/1 43/2/1 45/2/1
f 50/2/1 48/2/1 47/2/1
f 51/2/1 48/2/1 50/2/1
f 53/2/1 50/2/1 49/2/1
f 53/2/1 52/2/1 51/2/1
f 53/2/1 51/2/1 50/2/1
f 54/2/1 52/2/1 53/2/1
f 55/2/1 53/2/1 49/2/1
f 56/2/1 53/2/1 55/2/1
f 57/2/1 52/2/1 54/2/1
f 58/2/1 52/2/1 57/2/1
f 59/2/1 55/2/1 49/2/1
f 60/2/1 55/2/1 59/2/1
f 61/2/1 52/2/1 58/2/1
f 62/2/1 52/2/1 61/2/1
f 67/2/1 64/2/1 63/2/1
f 68/2/1 64/2/1 67/2/1
f 69/2/1 66/2/1 65/2/1
f 70/2/1 66/2/1 69/2/1
f 75/2/1 72/2/1 71/2/1
f 76/2/1 72/2/1 75/2/1
f 77/2/1 74/2/1 73/2/1
f 78/2/1 74/2/1 77/2/1
f 79/2/2 80/2/2 84/2/2
f 84/2/2 80/2/2 85/2/2
f 81/2/2 82/2/2 86/2/2
f 86/2/2 82/2/2 87/2/2
f 84/2/2 85/2/2 89/2/2
f 83/2/2 84/2/2 89/2/2
f 87/2/2 88/2/2 92/2/2
f 86/2/2 87/2/2 92/2/2
f 89/2/2 90/2/2 93/2/2
f 83/2/2 89/2/2 93/2/2
f 93/2/2 90/2/2 94/2/2
f 94/2/2 90/2/2 95/2/2
f 95/2/2 90/2/2 96/2/2
f 91/2/2 92/2/2 97/2/2
f 97/2/2 92/2/2 98/2/2
f 92/2/2 88/2/2 99/2/2
f 98/2/2 92/2/2 99/2/2
f 99/2/2 88/2/2 100/2/2
f 94/2/2 95/2/2 101/2/2
f 95/4/2 96/4/2 102/4/2
f 101/2/2 95/2/2 102/2/2
f 102/4/2 96/4/2 103/4/2
f 97/4/2 98/4/2 104/4/2
f 98/2/2 99/2/2 105/2/2
f 104/4/2 98/4/2 105/4/2
f 105/2/2 99/2/2 106/2/2
f 107/2/2 108/2/2 111/2/2
f 111/2/2 108/2/2 112/2/2
f 109/2/2 110/2/2 113/2/2
f 113/2/2 110/2/2 114/2/2
f 115/2/2 116/2/2 119/2/2
f 119/2/2 116/2/2 120/2/2
f 117/2/2 118/2/2 123/2/2
f 123/2/2 118/2/2 124/2/2
f 120/2/2 121/2/2 125/2/2
f 125/2/2 121/2/2 126/2/2
f 122/2/2 123/2/2 129/2/2
f 129/2/2 123/2/2 130/2/2
f 126/2/2 127/2/2 131/2/2
f 131/2/2 127/2/2 132/2/2
f 128/2/2 129/2/2 133/2/2
f 133/2/2 129/2/2 134/2/2
f 135/2/2 136/2/2 139/2/2
f 139/2/2 136/2/2 140/2/2
f 137/2/2 138/2/2 143/2/2
f 143/2/2 138/2/2 144/2/2
f 140/2/2 141/2/2 145/2/2
f 145/2/2 141/2/2 146/2/2
f 142/2/2 143/2/2 147/2/2
f 147/2/2 143/2/2 148/2/2
f 149/2/2 150/2/2 153/2/2
f 153/2/2 150/2/2 154/2/2
f 151/2/2 152/2/2 159/2/2
f 159/2/2 152/2/2 160/2/2
f 155/2/2 156/2/2 161/2/2
f 161/2/2 156/2/2 162/2/2
f 157/2/2 158/2/2 163/2/2
f 163/2/2 158/2/2 164/2/2
f 162/2/2 163/2/2 165/2/2
f 165/2/2 163/2/2 166/2/2
f 167/2/2 168/2/2 171/2/2
f 171/2/2 168/2/2 172/2/2
f 169/2/2 170/2/2 173/2/2
f 173/2/2 170/2/2 174/2/2
f 175/2/2 176/2/2 179/2/2
f 179/2/2 176/2/2 180/2/2
f 177/2/2 178/2/2 183/2/2
f 183/2/2 178/2/2 184/2/2
f 180/2/2 181/2/2 185/2/2
f 185/2/2 181/2/2 186/2/2
f 182/2/2 183/2/2 191/2/2
f 191/2/2 183/2/2 192/2/2
f 187/2/2 188/2/2 193/2/2
f 193/2/2 188/2/2 194/2/2
f 189/2/2 190/2/2 197/2/2
f 197/2/2 190/2/2 198/2/2
f 195/2/2 196/2/2 199/2/2
f 199/2/2 196/2/2 200/2/2
f 201/2/2 202/2/2 204/2/2
f 204/2/2 202/2/2 205/2/2
f 203/2/2 204/2/2 207/2/2
f 205/2/2 206/2/2 207/2/2
f 204/2/2 205/2/2 207/2/2
f 207/2/2 206/2/2 208/2/2
f 208/2/2 206/2/2 209/2/2
f 209/2/2 206/2/2 210/2/2
f 208/2/2 209/2/2 211/2/2
f 211/2/2 209/2/2 212/2/2
f 212/2/2 209/2/2 213/2/2
f 213/2/2 209/2/2 214/2/2
f 212/2/2 213/2/2 215/2/2
f 215/2/2 213/2/2 216/2/2
f 216/2/2 213/2/2 217/2/2
f 217/2/2 213/2/2 218/2/2
f 216/2/2 217/2/2 219/2/2
f 219/2/2 217/2/2 220/2/2
f 223/2/3 222/2/3 221/2/3
f 224/2/3 222/2/3 223/2/3
f 230/2/3 228/2/3 227/2/3
f 231/2/3 228/2/3 230/2/3
f 231/2/3 230/2/3 229/2/3
f 232/2/3 228/2/3 231/2/3
f 233/2/3 231/2/3 229/2/3
f 234/2/3 226/2/3 225/2/3
f 235/2/3 233/2/3 229/2/3
f 235/2/3 234/2/3 233/2/3
f 236/2/3 234/2/3 235/2/3
f 237/2/3 226/2/3 234/2/3
f 237/2/3 234/2/3 236/2/3
f 238/2/3 226/2/3 237/2/3
f 239/2/3 237/2/3 236/2/3
f 240/2/3 237/2/3 239/2/3
f 245/2/3 242/2/3 241/2/3
f 246/2/3 242/2/3 245/2/3
f 247/2/3 244/2/3 243/2/3
f 248/2/3 244/2/3 247/2/3
f 255/3/3 250/3/3 249/3/3
f 256/3/3 250/3/3 255/3/3
f 257/2/3 254/2/3 253/2/3
f 258/2/3 254/2/3 257/2/3
f 260/3/3 250/3/3 256/3/3
f 261/3/3 260/3/3 259/3/3
f 262/3/3 250/3/3 260/3/3
f 262/3/3 260/3/3 261/3/3
f 263/2/3 252/2/3 251/2/3
f 264/2/3 252/2/3 263/2/3
f 268/2/3 263/2/3 251/2/3
f 269/2/3 263/2/3 268/2/3
f 270/2/3 266/2/3 265/2/3
f 271/2/3 266/2/3 270/2/3
f 272/2/3 268/2/3 267/2/3
f 273/2/3 268/2/3 272/2/3
f 277/2/3 275/2/3 274/2/3
f 277/3/3 276/3/3 275/3/3
f 278/3/3 276/3/3 277/3/3
f 279/3/3 276/3/3 278/3/3
f 282/2/3 277/2/3 274/2/3
f 283/2/3 277/2/3 282/2/3
f 285/2/3 281/2/3 280/2/3
f 286/2/3 281/2/3 285/2/3
f 287/2/3 285/2/3 284/2/3
f 288/2/3 285/2/3 287/2/3
f 291/2/3 290/2/3 289/2/3
f 292/2/3 290/2/3 291/2/3
f 296/2/3 294/2/3 293/2/3
f 297/2/3 294/2/3 296/2/3
f 298/2/3 296/2/3 295/2/3
f 299/2/3 296/2/3 298/2/3
f 302/2/3 301/2/3 300/2/3
f 303/2/3 301/2/3 302/2/3
f 307/2/3 305/2/3 304/2/3
f 308/2/3 305/2/3 307/2/3
f 309/2/3 307/2/3 306/2/3
f 310/2/3 307/2/3 309/2/3
f 313/2/3 312/2/3 311/2/3
f 314/2/3 312/2/3 313/2/3
f 318/3/3 316/3/3 315/3/3
f 318/3/3 317/3/3 316/3/3
f 319/3/3 317/3/3 318/3/3
f 323/2/3 321/2/3 320/2/3
f 324/2/3 321/2/3 323/2/3
f 325/2/3 323/2/3 322/2/3
f 326/2/3 323/2/3 325/2/3
f 327/3/4 328/3/4 330/3/4
f 328/3/4 329/3/4 330/3/4
f 330/3/4 329/3/4 331/3/4
f 332/2/4 333/2/4 335/2/4
f 335/2/4 333/2/4 336/2/4
f 334/2/4 335/2/4 337/2/4
f 337/2/4 335/2/4 338/2/4
f 339/2/4 340/2/4 342/2/4
f 342/2/4 340/2/4 343/2/4
f 341/2/4 342/2/4 344/2/4
f 344/2/4 342/2/4 345/2/4
f 346/2/4 347/2/4 348/2/4
f 348/2/4 347/2/4 349/2/4
f 350/2/4 351/2/4 353/2/4
f 353/2/4 351/2/4 354/2/4
f 352/2/4 353/2/4 355/2/4
f 355/2/4 353/2/4 356/2/4
f 357/2/4 358/2/4 359/2/4
f 359/2/4 358/2/4 360/2/4
f 361/2/4 362/2/4 364/2/4
f 362/3/4 363/3/4 364/3/4
f 364/3/4 363/3/4 365/3/4
f 365/3/4 363/3/4 366/3/4
f 361/2/4 364/2/4 369/2/4
f 369/2/4 364/2/4 370/2/4
f 367/2/4 368/2/4 372/2/4
f 372/2/4 368/2/4 373/2/4
f 371/2/4 372/2/4 374/2/4
f 374/2/4 372/2/4 375/2/4
f 376/2/4 377/2/4 378/2/4
f 378/2/4 377/2/4 379/2/4
f 380/2/4 381/2/4 384/2/4
f 384/2/4 381/2/4 385/2/4
f 382/2/4 383/2/4 386/2/4
f 386/2/4 383/2/4 387/2/4
f 388/3/4 389/3/4 394/3/4
f 394/3/4 389/3/4 395/3/4
f 392/2/4 393/2/4 396/2/4
f 396/2/4 393/2/4 397/2/4
f 395/3/4 389/3/4 399/3/4
f 398/3/4 399/3/4 400/3/4
f 399/3/4 389/3/4 401/3/4
f 400/3/4 399/3/4 401/3/4
f 390/2/4 391/2/4 402/2/4
f 402/2/4 391/2/4 403/2/4
f 390/2/4 402/2/4 407/2/4
f 407/2/4 402/2/4 408/2/4
f 404/2/4 405/2/4 409/2/4
f 409/2/4 405/2/4 410/2/4
f 406/2/4 407/2/4 411/2/4
f 411/2/4 407/2/4 412/2/4
f 413/2/4 414/2/4 415/2/4
f 415/2/4 414/2/4 416/2/4
f 419/2/4 420/2/4 422/2/4
f 422/2/4 420/2/4 423/2/4
f 421/2/4 422/2/4 423/2/4
f 423/2/4 420/2/4 424/2/4
f 421/2/4 423/2/4 425/2/4
f 417/2/4 418/2/4 426/2/4
f 421/2/4 425/2/4 427/2/4
f 425/2/4 426/2/4 427/2/4
f 427/2/4 426/2/4 428/2/4
f 426/2/4 418/2/4 429/2/4
f 428/2/4 426/2/4 429/2/4
f 429/2/4 418/2/4 430/2/4
f 428/2/4 429/2/4 431/2/4
f 431/2/4 429/2/4 432/2/4
f 436/2/5 434/2/5 433/2/5
f 437/2/5 434/2/5 436/2/5
f 439/2/5 436/2/5 435/2/5
f 439/2/5 438/2/5 437/2/5
f 439/2/5 437/2/5 436/2/5
f 440/2/5 438/2/5 439/2/5
f 441/2/5 438/2/5 440/2/5
f 442/2/5 438/2/5 441/2/5
f 443/2/5 441/2/5 440/2/5
f 444/2/5 441/2/5 443/2/5
f 449/2/5 446/2/5 445/2/5
f 450/2/5 446/2/5 449/2/5
f 451/2/5 448/2/5 447/2/5
f 452/2/5 448/2/5 451/2/5
f 457/2/5 454/2/5 453/2/5
f 458/2/5 454/2/5 457/2/5
f 459/2/5 456/2/5 455/2/5
f 460/2/5 456/2/5 459/2/5
f 463/2/5 462/2/5 461/2/5
f 465/2/5 463/2/5 461/2/5
f 465/2/5 464/2/5 463/2/5
f 466/2/5 464/2/5 465/2/5
f 467/2/5 465/2/5 461/2/5
f 468/2/5 465/2/5 467/2/5
f 471/2/5 470/2/5 469/2/5
f 472/2/5 470/2/5 471/2/5
f 475/3/5 474/3/5 473/3/5
f 476/3/5 474/3/5 475/3/5
f 481/3/5 478/3/5 477/3/5
f 482/3/5 478/3/5 481/3/5
f 483/2/5 480/2/5 479/2/5
f 484/2/5 480/2/5 483/2/5
f 487/2/5 486/2/5 485/2/5
f 488/2/5 486/2/5 487/2/5
f 491/2/5 490/2/5 489/2/5
f 492/2/5 490/2/5 491/2/5
f 493/2/6 494/2/6 495/2/6
f 495/2/6 494/2/6 496/2/6
f 497/2/6 498/2/6 499/2/6
f 499/2/6 498/2/6 500/2/6
f 501/2/6 502/2/6 503/2/6
f 503/2/6 502/2/6 504/2/6
f 505/2/6 506/2/6 507/2/6
f 507/2/6 506/2/6 508/2/6
f 509/2/6 510/2/6 511/2/6
f 511/2/6 510/2/6 512/2/6
f 513/3/6 514/3/6 515/3/6
f 515/3/6 514/3/6 516/3/6
f 517/3/6 518/3/6 519/3/6
f 519/3/6 518/3/6 520/3/6
f 521/2/6 522/2/6 523/2/6
f 523/2/6 522/2/6 524/2/6
f 525/2/6 526/2/6 527/2/6
f 527/2/6 526/2/6 528/2/6
f 528/2/6 529/2/6 530/2/6
f 530/2/6 529/2/6 531/2/6
f 532/2/6 533/2/6 535/2/6
f 535/2/6 533/2/6 536/2/6
f 534/2/6 535/2/6 537/2/6
f 537/2/6 535/2/6 538/2/6
f 539/2/6 540/2/6 541/2/6
f 541/2/6 540/2/6 542/2/6
f 543/2/6 544/2/6 545/2/6
f 545/2/6 544/2/6 546/2/6
f 546/2/6 544/2/6 547/2/6
f 547/2/6 548/2/6 549/2/6
f 546/2/6 547/2/6 549/2/6
f 549/2/6 548/2/6 550/2/6
f 550/2/6 548/2/6 551/2/6
f 551/2/6 548/2/6 552/2/6
f 553/2/6 554/2/6 556/2/6
f 555/2/6 556/2/6 558/2/6
f 556/2/6 554/2/6 559/2/6
f 558/2/6 556/2/6 559/2/6
f 559/2/6 554/2/6 560/2/6
f 557/2/6 558/2/6 563/2/6
f 558/2/6 559/2/6 563/2/6
f 563/2/6 559/2/6 564/2/6
f 561/2/6 562/2/6 565/2/6
f 565/2/6 562/2/6 566/2/6
f 569/2/6 570/2/6 571/2/6
f 571/2/6 570/2/6 572/2/6
f 567/2/6 568/2/6 574/2/6
f 574/2/6 568/2/6 575/2/6
f 572/2/6 573/2/6 576/2/6
f 576/2/6 573/2/6 577/2/6
f 577/2/6 573/2/6 578/2/6
f 578/2/6 579/2/6 580/2/6
f 577/2/6 578/2/6 580/2/6
f 580/2/6 579/2/6 581/2/6
f 581/2/6 579/2/6 582/2/6
f 574/4/6 575/4/6 584/4/6
f 584/4/6 575/4/6 585/4/6
f 585/4/6 575/4/6 586/4/6
f 582/2/6 583/2/6 588/2/6
f 581/2/6 582/2/6 588/2/6
f 588/2/6 583/2/6 589/2/6
f 574/4/6 584/4/6 590/4/6
f 584/5/6 585/5/6 590/5/6
f 585/4/6 586/4/6 591/4/6
f 590/5/6 585/5/6 591/5/6
f 574/4/6 590/4/6 592/4/6
f 590/4/6 591/4/6 592/4/6
f 591/4/6 586/4/6 593/4/6
f 592/4/6 591/4/6 593/4/6
f 574/4/6 592/4/6 594/4/6
f 592/5/6 593/5/6 594/5/6
f 593/4/6 586/4/6 595/4/6
f 594/5/6 593/5/6 595/5/6
f 594/4/6 595/4/6 596/4/6
f 595/4/6 586/4/6 597/4/6
f 596/4/6 595/4/6 597/4/6
f 574/4/6 594/4/6 598/4/6
f 594/4/6 596/4/6 598/4/6
f 596/5/6 597/5/6 599/5/6
f 598/4/6 596/4/6 599/4/6
f 574/4/6 598/4/6 600/4/6
f 598/5/6 599/5/6 600/5/6
f 597/4/6 586/4/6 601/4/6
f 600/5/6 599/5/6 601/5/6
f 599/5/6 597/5/6 601/5/6
f 586/3/6 587/3/6 602/3/6
f 601/4/6 586/4/6 602/4/6
f 602/3/6 587/3/6 603/3/6
f 589/2/6 583/2/6 605/2/6
f 604/2/6 605/2/6 607/2/6
f 605/2/6 583/2/6 608/2/6
f 607/2/6 605/2/6 608/2/6
f 608/2/6 583/2/6 609/2/6
f 600/4/6 601/4/6 610/4/6
f 574/4/6 600/4/6 610/4/6
f 601/4/6 602/4/6 610/4/6
f 610/4/6 602/4/6 611/4/6
f 607/2/6 608/2/6 613/2/6
f 606/2/6 607/2/6 613/2/6
f 613/2/6 608/2/6 614/2/6
f 614/2/6 608/2/6 615/2/6
f 612/2/6 613/2/6 617/2/6
f 613/2/6 614/2/6 617/2/6
f 617/2/6 614/2/6 618/2/6
f 610/2/6 611/2/6 619/2/6
f 619/2/6 611/2/6 620/2/6
f 616/2/6 617/2/6 621/2/6
f 621/2/6 617/2/6 622/2/6
f 623/2/6 624/2/6 625/2/6
f 625/2/6 624/2/6 626/2/6
f 626/2/6 627/2/6 628/2/6
f 628/2/6 627/2/6 629/2/6
f 629/2/6 630/2/6 631/2/6
f 631/2/6 630/2/6 632/2/6
f 632/2/6 633/2/6 635/2/6
f 635/2/6 633/2/6 636/2/6
f 634/2/6 635/2/6 638/2/6
f 638/2/6 635/2/6 639/2/6
f 637/2/6 638/2/6 641/2/6
f 641/2/6 638/2/6 642/2/6
f 640/2/6 641/2/6 643/2/6
f 643/2/6 641/2/6 644/2/6
f 645/2/6 646/2/6 647/2/6
f 647/2/6 648/2/6 649/2/6
f 647/2/6 649/2/6 651/2/6
f 649/2/6 650/2/6 651/2/6
f 651/2/6 650/2/6 652/2/6
f 645/2/6 647/2/6 653/2/6
f 647/2/6 651/2/6 653/2/6
f 653/2/6 651/2/6 654/2/6
f 645/2/6 653/2/6 655/2/6
f 655/2/6 653/2/6 656/2/6
