# MagicaVoxel @ ephtracy

# material
mtllib Coin.mtl
usemtl palette

# normals
vn -1 0 0
vn 1 0 0
vn 0 0 1
vn 0 0 -1
vn 0 -1 0
vn 0 1 0

# texcoords
vt 0.0410156 0.5
vt 0.0449219 0.5
vt 0.0683594 0.5

# verts
v -1 0 2
v -1 0 -2
v -1 1 3
v -1 1 2
v -1 1 -2
v -1 1 -3
v -1 2 4
v -1 2 3
v -1 2 2
v -1 2 -2
v -1 2 -3
v -1 2 -4
v -1 3 1
v -1 3 -1
v -1 5 1
v -1 5 -1
v -1 6 4
v -1 6 3
v -1 6 2
v -1 6 -2
v -1 6 -3
v -1 6 -4
v -1 7 3
v -1 7 2
v -1 7 -2
v -1 7 -3
v -1 8 2
v -1 8 -2
v 0 0 2
v 0 0 -2
v 0 1 3
v 0 1 2
v 0 1 -2
v 0 1 -3
v 0 2 4
v 0 2 3
v 0 2 2
v 0 2 -2
v 0 2 -3
v 0 2 -4
v 0 3 1
v 0 3 -1
v 0 5 1
v 0 5 -1
v 0 6 4
v 0 6 3
v 0 6 2
v 0 6 -2
v 0 6 -3
v 0 6 -4
v 0 7 3
v 0 7 2
v 0 7 -2
v 0 7 -3
v 0 8 2
v 0 8 -2
v -1 2 4
v -1 6 4
v 0 2 4
v 0 6 4
v -1 1 3
v -1 2 3
v -1 6 3
v -1 7 3
v 0 1 3
v 0 2 3
v 0 6 3
v 0 7 3
v -1 0 2
v -1 1 2
v -1 7 2
v -1 8 2
v 0 0 2
v 0 1 2
v 0 7 2
v 0 8 2
v -1 0 -2
v -1 1 -2
v -1 7 -2
v -1 8 -2
v 0 0 -2
v 0 1 -2
v 0 7 -2
v 0 8 -2
v -1 1 -3
v -1 2 -3
v -1 6 -3
v -1 7 -3
v 0 1 -3
v 0 2 -3
v 0 6 -3
v 0 7 -3
v -1 2 -4
v -1 6 -4
v 0 2 -4
v 0 6 -4
v -1 0 2
v 0 0 2
v -1 0 -2
v 0 0 -2
v -1 1 3
v 0 1 3
v -1 1 2
v 0 1 2
v -1 1 -2
v 0 1 -2
v -1 1 -3
v 0 1 -3
v -1 2 4
v 0 2 4
v -1 2 3
v 0 2 3
v -1 2 -3
v 0 2 -3
v -1 2 -4
v 0 2 -4
v -1 6 4
v 0 6 4
v -1 6 3
v 0 6 3
v -1 6 -3
v 0 6 -3
v -1 6 -4
v 0 6 -4
v -1 7 3
v 0 7 3
v -1 7 2
v 0 7 2
v -1 7 -2
v 0 7 -2
v -1 7 -3
v 0 7 -3
v -1 8 2
v 0 8 2
v -1 8 -2
v 0 8 -2

# faces
f 4/3/1 2/3/1 1/3/1
f 5/3/1 2/3/1 4/3/1
f 8/3/1 4/3/1 3/3/1
f 9/1/1 5/1/1 4/1/1
f 9/3/1 4/3/1 8/3/1
f 10/3/1 6/3/1 5/3/1
f 10/1/1 5/1/1 9/1/1
f 11/3/1 6/3/1 10/3/1
f 13/3/1 10/3/1 9/3/1
f 14/3/1 10/3/1 13/3/1
f 15/3/1 13/3/1 9/3/1
f 15/2/1 14/2/1 13/2/1
f 16/3/1 10/3/1 14/3/1
f 16/2/1 14/2/1 15/2/1
f 17/3/1 8/3/1 7/3/1
f 18/1/1 9/1/1 8/1/1
f 18/3/1 8/3/1 17/3/1
f 19/3/1 15/3/1 9/3/1
f 19/1/1 9/1/1 18/1/1
f 19/3/1 16/3/1 15/3/1
f 20/3/1 10/3/1 16/3/1
f 20/3/1 16/3/1 19/3/1
f 20/1/1 11/1/1 10/1/1
f 21/3/1 12/3/1 11/3/1
f 21/1/1 11/1/1 20/1/1
f 22/3/1 12/3/1 21/3/1
f 23/3/1 19/3/1 18/3/1
f 24/1/1 20/1/1 19/1/1
f 24/3/1 19/3/1 23/3/1
f 25/3/1 21/3/1 20/3/1
f 25/1/1 20/1/1 24/1/1
f 26/3/1 21/3/1 25/3/1
f 27/3/1 25/3/1 24/3/1
f 28/3/1 25/3/1 27/3/1
f 29/3/2 30/3/2 32/3/2
f 32/3/2 30/3/2 33/3/2
f 31/3/2 32/3/2 36/3/2
f 32/1/2 33/1/2 37/1/2
f 36/3/2 32/3/2 37/3/2
f 33/3/2 34/3/2 38/3/2
f 37/1/2 33/1/2 38/1/2
f 38/3/2 34/3/2 39/3/2
f 37/3/2 38/3/2 41/3/2
f 41/3/2 38/3/2 42/3/2
f 37/3/2 41/3/2 43/3/2
f 41/2/2 42/2/2 43/2/2
f 42/3/2 38/3/2 44/3/2
f 43/2/2 42/2/2 44/2/2
f 35/3/2 36/3/2 45/3/2
f 36/1/2 37/1/2 46/1/2
f 45/3/2 36/3/2 46/3/2
f 37/3/2 43/3/2 47/3/2
f 46/1/2 37/1/2 47/1/2
f 43/3/2 44/3/2 47/3/2
f 44/3/2 38/3/2 48/3/2
f 47/3/2 44/3/2 48/3/2
f 38/1/2 39/1/2 48/1/2
f 39/3/2 40/3/2 49/3/2
f 48/1/2 39/1/2 49/1/2
f 49/3/2 40/3/2 50/3/2
f 46/3/2 47/3/2 51/3/2
f 47/1/2 48/1/2 52/1/2
f 51/3/2 47/3/2 52/3/2
f 48/3/2 49/3/2 53/3/2
f 52/1/2 48/1/2 53/1/2
f 53/3/2 49/3/2 54/3/2
f 52/3/2 53/3/2 55/3/2
f 55/3/2 53/3/2 56/3/2
f 59/3/3 58/3/3 57/3/3
f 60/3/3 58/3/3 59/3/3
f 65/3/3 62/3/3 61/3/3
f 66/3/3 62/3/3 65/3/3
f 67/3/3 64/3/3 63/3/3
f 68/3/3 64/3/3 67/3/3
f 73/3/3 70/3/3 69/3/3
f 74/3/3 70/3/3 73/3/3
f 75/3/3 72/3/3 71/3/3
f 76/3/3 72/3/3 75/3/3
f 77/3/4 78/3/4 81/3/4
f 81/3/4 78/3/4 82/3/4
f 79/3/4 80/3/4 83/3/4
f 83/3/4 80/3/4 84/3/4
f 85/3/4 86/3/4 89/3/4
f 89/3/4 86/3/4 90/3/4
f 87/3/4 88/3/4 91/3/4
f 91/3/4 88/3/4 92/3/4
f 93/3/4 94/3/4 95/3/4
f 95/3/4 94/3/4 96/3/4
f 99/3/5 98/3/5 97/3/5
f 100/3/5 98/3/5 99/3/5
f 103/3/5 102/3/5 101/3/5
f 104/3/5 102/3/5 103/3/5
f 107/3/5 106/3/5 105/3/5
f 108/3/5 106/3/5 107/3/5
f 111/3/5 110/3/5 109/3/5
f 112/3/5 110/3/5 111/3/5
f 115/3/5 114/3/5 113/3/5
f 116/3/5 114/3/5 115/3/5
f 117/3/6 118/3/6 119/3/6
f 119/3/6 118/3/6 120/3/6
f 121/3/6 122/3/6 123/3/6
f 123/3/6 122/3/6 124/3/6
f 125/3/6 126/3/6 127/3/6
f 127/3/6 126/3/6 128/3/6
f 129/3/6 130/3/6 131/3/6
f 131/3/6 130/3/6 132/3/6
f 133/3/6 134/3/6 135/3/6
f 135/3/6 134/3/6 136/3/6
